<svg xmlns="http://www.w3.org/2000/svg" width="1200" height="800" viewBox="0 0 1200 800" role="img" aria-labelledby="title desc">
  <title id="title">AI Integration Illustration</title>
  <desc id="desc">Digital chip and connected workflow arrows for AI integration.</desc>
  <defs>
    <linearGradient id="bg3" x1="0" y1="0" x2="1" y2="1">
      <stop offset="0%" stop-color="#E8FFF5"/>
      <stop offset="100%" stop-color="#C8F4E2"/>
    </linearGradient>
    <linearGradient id="chip" x1="0" y1="0" x2="0" y2="1">
      <stop offset="0%" stop-color="#2BBF8B"/>
      <stop offset="100%" stop-color="#1D8B66"/>
    </linearGradient>
  </defs>
  <rect width="1200" height="800" fill="url(#bg3)"/>
  <circle cx="1040" cy="120" r="120" fill="#B9ECD8" opacity="0.6"/>
  <circle cx="140" cy="700" r="140" fill="#AFE6D0" opacity="0.55"/>
  <g transform="translate(370 180)">
    <rect x="0" y="0" width="460" height="440" rx="42" fill="#FFFFFF" opacity="0.95"/>
    <rect x="70" y="70" width="320" height="300" rx="30" fill="url(#chip)"/>
    <g stroke="#23936D" stroke-width="12" stroke-linecap="round">
      <line x1="36" y1="130" x2="70" y2="130"/>
      <line x1="36" y1="190" x2="70" y2="190"/>
      <line x1="36" y1="250" x2="70" y2="250"/>
      <line x1="36" y1="310" x2="70" y2="310"/>
      <line x1="390" y1="130" x2="424" y2="130"/>
      <line x1="390" y1="190" x2="424" y2="190"/>
      <line x1="390" y1="250" x2="424" y2="250"/>
      <line x1="390" y1="310" x2="424" y2="310"/>
      <line x1="130" y1="36" x2="130" y2="70"/>
      <line x1="230" y1="36" x2="230" y2="70"/>
      <line x1="330" y1="36" x2="330" y2="70"/>
      <line x1="130" y1="370" x2="130" y2="404"/>
      <line x1="230" y1="370" x2="230" y2="404"/>
      <line x1="330" y1="370" x2="330" y2="404"/>
    </g>
    <circle cx="230" cy="220" r="84" fill="#E7FFF6"/>
    <path d="M182 220 H278" stroke="#1D8B66" stroke-width="18" stroke-linecap="round"/>
    <path d="M230 172 V268" stroke="#1D8B66" stroke-width="18" stroke-linecap="round"/>
  </g>
  <g stroke="#1F9A72" stroke-width="12" fill="none" stroke-linecap="round" stroke-linejoin="round" opacity="0.9">
    <path d="M220 250 C320 170, 340 170, 420 210"/>
    <path d="M980 250 C880 170, 860 170, 780 210"/>
    <path d="M220 560 C320 640, 340 640, 420 600"/>
    <path d="M980 560 C880 640, 860 640, 780 600"/>
  </g>
</svg>
