<svg xmlns="http://www.w3.org/2000/svg" width="1200" height="800" viewBox="0 0 1200 800" role="img" aria-labelledby="title desc">
  <title id="title">AI Network Infrastructure Illustration</title>
  <desc id="desc">Connected nodes and server blocks representing network architecture.</desc>
  <defs>
    <linearGradient id="bg2" x1="0" y1="0" x2="1" y2="1">
      <stop offset="0%" stop-color="#E9F3FF"/>
      <stop offset="100%" stop-color="#CDE3FF"/>
    </linearGradient>
    <linearGradient id="node" x1="0" y1="0" x2="0" y2="1">
      <stop offset="0%" stop-color="#5F9BFF"/>
      <stop offset="100%" stop-color="#2B64CC"/>
    </linearGradient>
  </defs>
  <rect width="1200" height="800" fill="url(#bg2)"/>
  <circle cx="180" cy="110" r="90" fill="#BAD8FF" opacity="0.6"/>
  <circle cx="1060" cy="700" r="120" fill="#B3D2FF" opacity="0.55"/>
  <g stroke="#4C78D4" stroke-width="10" stroke-linecap="round" opacity="0.9">
    <line x1="250" y1="390" x2="460" y2="230"/>
    <line x1="250" y1="390" x2="460" y2="550"/>
    <line x1="460" y1="230" x2="760" y2="180"/>
    <line x1="460" y1="550" x2="760" y2="620"/>
    <line x1="760" y1="180" x2="940" y2="360"/>
    <line x1="760" y1="620" x2="940" y2="420"/>
    <line x1="940" y1="360" x2="940" y2="420"/>
    <line x1="460" y1="230" x2="460" y2="550"/>
  </g>
  <g fill="url(#node)">
    <circle cx="250" cy="390" r="52"/>
    <circle cx="460" cy="230" r="48"/>
    <circle cx="460" cy="550" r="48"/>
    <circle cx="760" cy="180" r="44"/>
    <circle cx="760" cy="620" r="44"/>
    <circle cx="940" cy="360" r="44"/>
    <circle cx="940" cy="420" r="44"/>
  </g>
  <g fill="#FFFFFF" opacity="0.96">
    <rect x="150" y="620" width="900" height="110" rx="24"/>
  </g>
  <g fill="#5D86DA">
    <rect x="200" y="650" width="160" height="16" rx="8"/>
    <rect x="200" y="678" width="110" height="14" rx="7"/>
    <rect x="420" y="650" width="180" height="16" rx="8"/>
    <rect x="420" y="678" width="140" height="14" rx="7"/>
    <rect x="660" y="650" width="160" height="16" rx="8"/>
    <rect x="660" y="678" width="120" height="14" rx="7"/>
  </g>
</svg>
